<?xml version="1.0" encoding="UTF-8" standalone="no"?>
<svg
   xmlns:dc="http://purl.org/dc/elements/1.1/"
   xmlns:cc="http://creativecommons.org/ns#"
   xmlns:rdf="http://www.w3.org/1999/02/22-rdf-syntax-ns#"
   xmlns:svg="http://www.w3.org/2000/svg"
   xmlns="http://www.w3.org/2000/svg"
   xmlns:sodipodi="http://sodipodi.sourceforge.net/DTD/sodipodi-0.dtd"
   xmlns:inkscape="http://www.inkscape.org/namespaces/inkscape"
   width="24"
   height="24"
   viewBox="0 0 24 24"
   id="svg3001"
   version="1.1"
   inkscape:version="0.48.5 r10040"
   sodipodi:docname="gemeinde.svg">
  <metadata
     id="metadata3015">
    <rdf:RDF>
      <cc:Work
         rdf:about="">
        <dc:format>image/svg+xml</dc:format>
        <dc:type
           rdf:resource="http://purl.org/dc/dcmitype/StillImage" />
      </cc:Work>
    </rdf:RDF>
  </metadata>
  <defs
     id="defs3013" />
  <sodipodi:namedview
     pagecolor="#ffffff"
     bordercolor="#666666"
     borderopacity="1"
     objecttolerance="10"
     gridtolerance="10"
     guidetolerance="10"
     inkscape:pageopacity="0"
     inkscape:pageshadow="2"
     inkscape:window-width="1920"
     inkscape:window-height="989"
     id="namedview3011"
     showgrid="true"
     inkscape:zoom="34.166667"
     inkscape:cx="16.908974"
     inkscape:cy="11.455499"
     inkscape:window-x="-8"
     inkscape:window-y="-8"
     inkscape:window-maximized="1"
     inkscape:current-layer="svg3001">
    <inkscape:grid
       type="xygrid"
       id="grid3063" />
  </sodipodi:namedview>
  <path
     style="fill:#b3b3b3;fill-opacity:1;stroke:none"
     d="m 5,5 0,9 c 0,4 3,6 7,6 4,0 7,-2 7,-6 l 0,-9 z"
     id="path3074"
     inkscape:connector-curvature="0"
     sodipodi:nodetypes="cszscc" />
  <path
     fill="none"
     d="M0 0h24v24H0V0z"
     id="path3003" />
  <path
     d="m 3,14 c 0,6 5.112962,7.99191 8.982957,7.99852 C 15.852951,22.00512 21,20 21,14 L 21,5 C 21,4 20,3 19,3 L 5,3 C 4,3 3,4 3,5 3,5 2.98283,12.236447 3,14 z m 8.986372,5.998522 C 8,20 5,18 5,14 l 0,-9 14,0 0,9 c 0,4 -3,5.997034 -7.013628,5.998522 z"
     id="path3007"
     inkscape:connector-curvature="0"
     sodipodi:nodetypes="csccssscsccccs" />
  <path
     inkscape:connector-curvature="0"
     d="M 9.34,15.78 12.27,13.9 15.2,15.78 14.31,12.42 17,10.22 13.53,10.01 12.27,6.7799996 11,10 l -3.47,0.21 2.69,2.2 z"
     id="path3037"
     sodipodi:nodetypes="ccccccccccc" />
</svg>
