<?xml version="1.0" encoding="UTF-8" standalone="no"?>
<!-- Created with Inkscape (http://www.inkscape.org/) -->
<svg
   xmlns:ns="http://creativecommons.org/ns#"
   xmlns:dc="http://purl.org/dc/elements/1.1/"
   xmlns:cc="http://web.resource.org/cc/"
   xmlns:rdf="http://www.w3.org/1999/02/22-rdf-syntax-ns#"
   xmlns:svg="http://www.w3.org/2000/svg"
   xmlns="http://www.w3.org/2000/svg"
   xmlns:sodipodi="http://sodipodi.sourceforge.net/DTD/sodipodi-0.dtd"
   xmlns:inkscape="http://www.inkscape.org/namespaces/inkscape"
   id="svg2548"
   sodipodi:version="0.32"
   inkscape:version="0.44.1"
   width="138.14178"
   height="29.482374"
   xml:space="preserve"
   sodipodi:docname="logoavdl.svg"
   sodipodi:docbase="/home/bjsvwzie/EigeneDateien/tmp/cadastre"
   version="1.0"><metadata
     id="metadata2553"><rdf:RDF><ns:Work
         rdf:about=""><dc:format>image/svg+xml</dc:format><dc:type
           rdf:resource="http://purl.org/dc/dcmitype/StillImage" /></ns:Work><cc:Work
         rdf:about=""><dc:format>image/svg+xml</dc:format><dc:type
           rdf:resource="http://purl.org/dc/dcmitype/StillImage" /></cc:Work></rdf:RDF></metadata><defs
     id="defs2551"><inkscape:perspective
       sodipodi:type="inkscape:persp3d"
       inkscape:vp_x="0 : 526.18109 : 1"
       inkscape:vp_y="0 : 1000 : 0"
       inkscape:vp_z="744.09448 : 526.18109 : 1"
       inkscape:persp3d-origin="372.04724 : 350.78739 : 1"
       id="perspective2555" /><clipPath
       clipPathUnits="userSpaceOnUse"
       id="clipPath2565"><path
         d="M 0,235.859 L 0,0 L 1429.12,0 L 1429.12,235.859 L 0,235.859 z "
         id="path2567" /></clipPath></defs><sodipodi:namedview
     inkscape:window-height="675"
     inkscape:window-width="986"
     inkscape:pageshadow="2"
     inkscape:pageopacity="0.0"
     guidetolerance="10.0"
     gridtolerance="10.0"
     objecttolerance="10.0"
     borderopacity="1.0"
     bordercolor="#666666"
     pagecolor="#ffffff"
     id="base"
     showgrid="false"
     inkscape:zoom="2.1519781"
     inkscape:cx="5.0373675"
     inkscape:cy="49.10475"
     inkscape:window-x="185"
     inkscape:window-y="0"
     inkscape:current-layer="g2557"
     width="38.986682mm"
     height="8.3205814mm"
     units="mm" /><g
     id="g2557"
     inkscape:groupmode="layer"
     inkscape:label="logoavdersw"
     transform="matrix(1.25,0,0,-1.25,-40.49805,29.48237)"><path
       id="path2569"
       style="fill:#ed1c24;fill-opacity:1;fill-rule:nonzero;stroke:#000000;stroke-width:0"
       d="M 142.875,21.8477 C 142.875,21.8477 138.906,23.5859 132.261,23.5859 L 132.259,23.5859 C 125.615,23.5859 121.646,21.8477 121.646,21.8477 C 121.646,21.8477 121.291,14.1512 122.796,9.79961 C 125.458,2.14844 132.259,0 132.259,0 L 132.263,0 C 132.263,0 139.062,2.14844 141.724,9.79961 C 143.232,14.1512 142.875,21.8477 142.875,21.8477" /><path
       id="path2571"
       style="fill:white;fill-opacity:1;fill-rule:nonzero;stroke:#000000;stroke-width:0"
       d="M 139.314,15.2129 L 139.314,10.9727 L 134.367,10.9727 L 134.367,6.02539 L 130.126,6.02539 L 130.126,10.9727 L 125.179,10.9727 L 125.179,15.2129 L 130.126,15.2129 L 130.126,20.159 L 134.367,20.159 L 134.367,15.2129 L 139.314,15.2129" /><g
       id="g3256"
       transform="translate(32.39844,0)"><path
         d="M 2.55859,20.7535 L 1.34336,17.6754 L 3.76562,17.6754 L 2.55859,20.7535 z M 2.28672,21.2812 L 2.91016,21.2812 L 5.125,15.7 L 4.54922,15.7 L 3.94961,17.1953 L 1.13516,17.1953 L 0.535547,15.7 L 0,15.7 L 2.28672,21.2812"
         style="fill:#231f20;fill-opacity:1;fill-rule:nonzero;stroke:#000000;stroke-width:0"
         id="path2573" /><path
         d="M 11.1891,15.7 L 11.1891,18.4105 C 11.1891,18.9863 10.9727,19.4422 10.3254,19.4422 C 9.77344,19.4422 9.23008,18.9703 9.23008,17.9551 L 9.23008,15.7 L 8.72617,15.7 L 8.72617,18.4105 C 8.72617,18.9863 8.51016,19.4422 7.86289,19.4422 C 7.31094,19.4422 6.76719,18.9703 6.76719,17.9551 L 6.76719,15.7 L 6.26367,15.7 L 6.26367,18.8184 C 6.26367,19.1305 6.26367,19.45 6.23164,19.7777 L 6.71914,19.7777 L 6.71914,19.0902 L 6.73516,19.0824 C 6.89492,19.3621 7.13477,19.8738 8.00625,19.8738 C 8.36602,19.8738 8.9582,19.7223 9.08594,19.0102 L 9.10195,19.0102 C 9.28555,19.4902 9.76562,19.8738 10.4055,19.8738 C 11.2285,19.8738 11.6926,19.2984 11.6926,18.5066 L 11.6926,15.7 L 11.1891,15.7"
         style="fill:#231f20;fill-opacity:1;fill-rule:nonzero;stroke:#000000;stroke-width:0"
         id="path2575" /><path
         d="M 15.0863,19.3461 L 14.1594,19.3461 L 14.1594,16.7074 C 14.1594,16.3398 14.2949,16.0359 14.7027,16.0359 C 14.8945,16.0359 15.0227,16.0762 15.1664,16.1316 L 15.198,15.7164 C 15.0785,15.668 14.8305,15.6043 14.5828,15.6043 C 13.6875,15.6043 13.6555,16.2195 13.6555,16.9633 L 13.6555,19.3461 L 12.8555,19.3461 L 12.8555,19.7777 L 13.6555,19.7777 L 13.6555,20.7613 L 14.1594,20.9375 L 14.1594,19.7777 L 15.0863,19.7777 L 15.0863,19.3461"
         style="fill:#231f20;fill-opacity:1;fill-rule:nonzero;stroke:#000000;stroke-width:0"
         id="path2577" /><path
         d="M 16.3922,15.7 L 16.895325,15.7 L 16.895325,21.69688 L 16.3922,21.69688 L 16.3922,15.7 z "
         style="fill:#231f20;fill-opacity:1;fill-rule:nonzero;stroke:#000000;stroke-width:0"
         id="path2579" /><path
         d="M 18.568,19.7777 L 19.0715,19.7777 L 19.0715,15.7 L 18.568,15.7 L 18.568,19.7777 z M 19.0715,20.8652 L 18.568,20.8652 L 18.568,21.5371 L 19.0715,21.5371 L 19.0715,20.8652"
         style="fill:#231f20;fill-opacity:1;fill-rule:nonzero;stroke:#000000;stroke-width:0"
         id="path2581" /><path
         d="M 23.398,19.2344 C 23.1262,19.3539 22.7984,19.4422 22.5266,19.4422 C 21.543,19.4422 20.991,18.7305 20.991,17.7391 C 20.991,16.8113 21.5508,16.0359 22.4707,16.0359 C 22.7906,16.0359 23.0859,16.1078 23.3902,16.2195 L 23.4379,15.748 C 23.0941,15.6285 22.7742,15.6043 22.3906,15.6043 C 21.0789,15.6043 20.4395,16.6035 20.4395,17.7391 C 20.4395,18.9941 21.2473,19.8738 22.4547,19.8738 C 22.9426,19.8738 23.2938,19.7617 23.4379,19.7137 L 23.398,19.2344"
         style="fill:#231f20;fill-opacity:1;fill-rule:nonzero;stroke:#000000;stroke-width:0"
         id="path2583" /><path
         d="M 24.6953,21.6969 L 25.1988,21.6969 L 25.1988,19.0902 L 25.2148,19.0902 C 25.4309,19.5379 25.8867,19.8738 26.4863,19.8738 C 27.5816,19.8738 27.8773,19.1465 27.8773,18.1387 L 27.8773,15.7 L 27.3734,15.7 L 27.3734,18.1309 C 27.3734,18.8344 27.2379,19.4422 26.4062,19.4422 C 25.5105,19.4422 25.1988,18.5945 25.1988,17.8828 L 25.1988,15.7 L 24.6953,15.7 L 24.6953,21.6969"
         style="fill:#231f20;fill-opacity:1;fill-rule:nonzero;stroke:#000000;stroke-width:0"
         id="path2585" /><path
         d="M 32.0293,18.027 C 32.0293,18.7383 31.7418,19.4422 30.9902,19.4422 C 30.2465,19.4422 29.7906,18.6988 29.7906,18.027 L 32.0293,18.027 z M 32.2773,15.8281 C 31.9254,15.684 31.4695,15.6043 31.0938,15.6043 C 29.7426,15.6043 29.2387,16.5156 29.2387,17.7391 C 29.2387,18.9863 29.927,19.8738 30.9578,19.8738 C 32.1094,19.8738 32.5812,18.9461 32.5812,17.8512 L 32.5812,17.5953 L 29.7906,17.5953 C 29.7906,16.7312 30.2543,16.0359 31.134,16.0359 C 31.502,16.0359 32.0375,16.1879 32.2773,16.3398 L 32.2773,15.8281"
         style="fill:#231f20;fill-opacity:1;fill-rule:nonzero;stroke:#000000;stroke-width:0"
         id="path2587" /><path
         d="M 38.1289,15.7 L 37.5375,15.7 L 35.4586,21.2812 L 36.0426,21.2812 L 37.8414,16.252 L 39.7043,21.2812 L 40.248,21.2812 L 38.1289,15.7"
         style="fill:#231f20;fill-opacity:1;fill-rule:nonzero;stroke:#000000;stroke-width:0"
         id="path2589" /><path
         d="M 43.3773,18.027 C 43.3773,18.7383 43.0898,19.4422 42.3379,19.4422 C 41.5945,19.4422 41.1387,18.6988 41.1387,18.027 L 43.3773,18.027 z M 43.6254,15.8281 C 43.2734,15.684 42.818,15.6043 42.4418,15.6043 C 41.0906,15.6043 40.5867,16.5156 40.5867,17.7391 C 40.5867,18.9863 41.275,19.8738 42.3062,19.8738 C 43.4574,19.8738 43.9293,18.9461 43.9293,17.8512 L 43.9293,17.5953 L 41.1387,17.5953 C 41.1387,16.7312 41.6023,16.0359 42.482,16.0359 C 42.8496,16.0359 43.3855,16.1879 43.6254,16.3398 L 43.6254,15.8281"
         style="fill:#231f20;fill-opacity:1;fill-rule:nonzero;stroke:#000000;stroke-width:0"
         id="path2591" /><path
         d="M 45.291,18.866 C 45.291,19.3145 45.291,19.482 45.259,19.7777 L 45.7629,19.7777 L 45.7629,18.9941 L 45.7781,18.9941 C 45.9625,19.45 46.3062,19.8738 46.8262,19.8738 C 46.9457,19.8738 47.0898,19.85 47.1777,19.8262 L 47.1777,19.2984 C 47.0738,19.3301 46.9379,19.3461 46.8102,19.3461 C 46.0102,19.3461 45.7945,18.4508 45.7945,17.7148 L 45.7945,15.7 L 45.291,15.7 L 45.291,18.866"
         style="fill:#231f20;fill-opacity:1;fill-rule:nonzero;stroke:#000000;stroke-width:0"
         id="path2593" /><path
         d="M 53.2809,15.7 L 53.2809,18.4105 C 53.2809,18.9863 53.0645,19.4422 52.4172,19.4422 C 51.8652,19.4422 51.3219,18.9703 51.3219,17.9551 L 51.3219,15.7 L 50.818,15.7 L 50.818,18.4105 C 50.818,18.9863 50.602,19.4422 49.9547,19.4422 C 49.4027,19.4422 48.859,18.9703 48.859,17.9551 L 48.859,15.7 L 48.3555,15.7 L 48.3555,18.8184 C 48.3555,19.1305 48.3555,19.45 48.323,19.7777 L 48.8109,19.7777 L 48.8109,19.0902 L 48.827,19.0824 C 48.9867,19.3621 49.2266,19.8738 50.098,19.8738 C 50.4578,19.8738 51.0496,19.7223 51.1777,19.0102 L 51.1938,19.0102 C 51.3773,19.4902 51.8574,19.8738 52.4973,19.8738 C 53.3203,19.8738 53.7844,19.2984 53.7844,18.5066 L 53.7844,15.7 L 53.2809,15.7"
         style="fill:#231f20;fill-opacity:1;fill-rule:nonzero;stroke:#000000;stroke-width:0"
         id="path2595" /><path
         d="M 57.9059,18.027 C 57.9059,18.7383 57.6184,19.4422 56.866,19.4422 C 56.123,19.4422 55.6672,18.6988 55.6672,18.027 L 57.9059,18.027 z M 58.1539,15.8281 C 57.802,15.684 57.3461,15.6043 56.9703,15.6043 C 55.6191,15.6043 55.1152,16.5156 55.1152,17.7391 C 55.1152,18.9863 55.8031,19.8738 56.8344,19.8738 C 57.9859,19.8738 58.4574,18.9461 58.4574,17.8512 L 58.4574,17.5953 L 55.6672,17.5953 C 55.6672,16.7312 56.1309,16.0359 57.0102,16.0359 C 57.3777,16.0359 57.9141,16.1879 58.1539,16.3398 L 58.1539,15.8281"
         style="fill:#231f20;fill-opacity:1;fill-rule:nonzero;stroke:#000000;stroke-width:0"
         id="path2597" /><path
         d="M 59.5074,16.2918 C 59.8109,16.1402 60.1785,16.0359 60.5707,16.0359 C 61.0504,16.0359 61.4742,16.2996 61.4742,16.7637 C 61.4742,17.7309 59.5152,17.5789 59.5152,18.7625 C 59.5152,19.5703 60.1711,19.8738 60.843,19.8738 C 61.0586,19.8738 61.4902,19.8262 61.85,19.6898 L 61.8023,19.25 C 61.5383,19.3699 61.1781,19.4422 60.8984,19.4422 C 60.3789,19.4422 60.0191,19.282 60.0191,18.7625 C 60.0191,18.0027 62.0258,18.0984 62.0258,16.7637 C 62.0258,15.9 61.2184,15.6043 60.6023,15.6043 C 60.2109,15.6043 59.8191,15.6523 59.4594,15.7957 L 59.5074,16.2918"
         style="fill:#231f20;fill-opacity:1;fill-rule:nonzero;stroke:#000000;stroke-width:0"
         id="path2599" /><path
         d="M 63.0191,16.2918 C 63.3227,16.1402 63.6902,16.0359 64.0824,16.0359 C 64.5621,16.0359 64.9859,16.2996 64.9859,16.7637 C 64.9859,17.7309 63.027,17.5789 63.027,18.7625 C 63.027,19.5703 63.6824,19.8738 64.3547,19.8738 C 64.5703,19.8738 65.002,19.8262 65.3617,19.6898 L 65.3141,19.25 C 65.0496,19.3699 64.6898,19.4422 64.4102,19.4422 C 63.8906,19.4422 63.5309,19.282 63.5309,18.7625 C 63.5309,18.0027 65.5375,18.0984 65.5375,16.7637 C 65.5375,15.9 64.7301,15.6043 64.1145,15.6043 C 63.7227,15.6043 63.3312,15.6523 62.9711,15.7957 L 63.0191,16.2918"
         style="fill:#231f20;fill-opacity:1;fill-rule:nonzero;stroke:#000000;stroke-width:0"
         id="path2601" /><path
         d="M 70.025,16.6598 C 70.025,16.3477 70.025,16.0277 70.0566,15.7 L 69.5691,15.7 L 69.5691,16.4277 L 69.5531,16.4277 C 69.3852,16.0602 69.0816,15.6043 68.234,15.6043 C 67.2266,15.6043 66.843,16.2758 66.843,17.1715 L 66.843,19.7777 L 67.3461,19.7777 L 67.3461,17.2992 C 67.3461,16.5316 67.6184,16.0359 68.3141,16.0359 C 69.2336,16.0359 69.5211,16.8438 69.5211,17.5234 L 69.5211,19.7777 L 70.025,19.7777 L 70.025,16.6598"
         style="fill:#231f20;fill-opacity:1;fill-rule:nonzero;stroke:#000000;stroke-width:0"
         id="path2603" /><path
         d="M 71.6914,18.8184 C 71.6914,19.1305 71.6914,19.45 71.6594,19.7777 L 72.1469,19.7777 L 72.1469,19.0504 L 72.1633,19.0504 C 72.3305,19.418 72.6352,19.8738 73.4828,19.8738 C 74.4898,19.8738 74.8734,19.202 74.8734,18.3066 L 74.8734,15.7 L 74.3695,15.7 L 74.3695,18.1785 C 74.3695,18.9461 74.098,19.4422 73.4027,19.4422 C 72.4828,19.4422 72.1949,18.6348 72.1949,17.9551 L 72.1949,15.7 L 71.6914,15.7 L 71.6914,18.8184"
         style="fill:#231f20;fill-opacity:1;fill-rule:nonzero;stroke:#000000;stroke-width:0"
         id="path2605" /><path
         d="M 78.0258,16.1316 C 78.9379,16.1316 79.266,16.9957 79.266,17.7391 C 79.266,18.7227 78.9781,19.4422 78.059,19.4422 C 77.0992,19.4422 76.8512,18.5309 76.8512,17.7391 C 76.8512,16.9395 77.1703,16.1316 78.0258,16.1316 z M 79.7699,16.0359 C 79.7699,14.9004 79.2582,13.973 77.8578,13.973 C 77.3227,13.973 76.8344,14.125 76.6273,14.1891 L 76.6676,14.693 C 76.9789,14.5328 77.4262,14.4047 77.8668,14.4047 C 79.1625,14.4047 79.2738,15.3484 79.2738,16.5 L 79.2582,16.5 C 78.9859,15.9082 78.5375,15.7 78.018,15.7 C 76.7152,15.7 76.2992,16.8355 76.2992,17.7391 C 76.2992,18.9785 76.7797,19.8738 77.9789,19.8738 C 78.5219,19.8738 78.8734,19.8016 79.2504,19.3145 L 79.266,19.3145 L 79.266,19.7777 L 79.7699,19.7777 L 79.7699,16.0359"
         style="fill:#231f20;fill-opacity:1;fill-rule:nonzero;stroke:#000000;stroke-width:0"
         id="path2607" /></g><g
       id="g3230"
       transform="translate(-0.363249,-10.52126)"><path
         d="M 83.391,16.4117 C 83.7191,16.2039 84.102,16.084 84.6215,16.084 C 85.309,16.084 85.8773,16.4355 85.8773,17.2273 C 85.8773,18.3227 83.3188,18.4586 83.3188,19.9219 C 83.3188,20.8172 84.102,21.377 85.0863,21.377 C 85.3578,21.377 85.7973,21.3367 86.1812,21.1934 L 86.0934,20.6895 C 85.8453,20.825 85.4535,20.8973 85.0777,20.8973 C 84.5023,20.8973 83.8707,20.657 83.8707,19.9379 C 83.8707,18.8184 86.4293,18.8105 86.4293,17.1793 C 86.4293,16.0516 85.4613,15.6043 84.598,15.6043 C 84.0543,15.6043 83.6305,15.7164 83.3344,15.8441 L 83.391,16.4117"
         style="fill:#231f20;fill-opacity:1;fill-rule:nonzero;stroke:#000000;stroke-width:0"
         id="path2609" /><path
         d="M 90.5414,19.2344 C 90.2699,19.3539 89.9418,19.4422 89.6703,19.4422 C 88.6859,19.4422 88.1352,18.7305 88.1352,17.7391 C 88.1352,16.8113 88.6938,16.0359 89.6137,16.0359 C 89.934,16.0359 90.2289,16.1078 90.5336,16.2195 L 90.5816,15.748 C 90.2379,15.6285 89.9184,15.6043 89.5336,15.6043 C 88.223,15.6043 87.5824,16.6035 87.5824,17.7391 C 87.5824,18.9941 88.391,19.8738 89.598,19.8738 C 90.0863,19.8738 90.4379,19.7617 90.5816,19.7137 L 90.5414,19.2344"
         style="fill:#231f20;fill-opacity:1;fill-rule:nonzero;stroke:#000000;stroke-width:0"
         id="path2611" /><path
         d="M 91.8383,21.6969 L 92.3422,21.6969 L 92.3422,19.0902 L 92.3578,19.0902 C 92.5746,19.5379 93.0297,19.8738 93.6293,19.8738 C 94.725,19.8738 95.0211,19.1465 95.0211,18.1387 L 95.0211,15.7 L 94.5172,15.7 L 94.5172,18.1309 C 94.5172,18.8344 94.3812,19.4422 93.5492,19.4422 C 92.6547,19.4422 92.3422,18.5945 92.3422,17.8828 L 92.3422,15.7 L 91.8383,15.7 L 91.8383,21.6969"
         style="fill:#231f20;fill-opacity:1;fill-rule:nonzero;stroke:#000000;stroke-width:0"
         id="path2613" /><path
         d="M 100.875,15.7 L 100.268,15.7 L 99.1566,19.2262 L 99.141,19.2262 L 98.0297,15.7 L 97.4223,15.7 L 96.1109,19.7777 L 96.6625,19.7777 L 97.734,16.252 L 97.7504,16.252 L 98.8852,19.7777 L 99.4926,19.7777 L 100.573,16.252 L 100.588,16.252 L 101.715,19.7777 L 102.219,19.7777 L 100.875,15.7"
         style="fill:#231f20;fill-opacity:1;fill-rule:nonzero;stroke:#000000;stroke-width:0"
         id="path2615" /><path
         d="M 105.797,18.027 C 105.797,18.7383 105.509,19.4422 104.758,19.4422 C 104.014,19.4422 103.558,18.6988 103.558,18.027 L 105.797,18.027 z M 106.045,15.8281 C 105.693,15.684 105.237,15.6043 104.862,15.6043 C 103.51,15.6043 103.006,16.5156 103.006,17.7391 C 103.006,18.9863 103.694,19.8738 104.725,19.8738 C 105.877,19.8738 106.348,18.9461 106.348,17.8512 L 106.348,17.5953 L 103.558,17.5953 C 103.558,16.7312 104.022,16.0359 104.901,16.0359 C 105.27,16.0359 105.805,16.1879 106.045,16.3398 L 106.045,15.8281"
         style="fill:#231f20;fill-opacity:1;fill-rule:nonzero;stroke:#000000;stroke-width:0"
         id="path2617" /><path
         d="M 107.71,19.7777 L 108.213,19.7777 L 108.213,15.7 L 107.71,15.7 L 107.71,19.7777 z M 108.213,20.8652 L 107.71,20.8652 L 107.71,21.5371 L 108.213,21.5371 L 108.213,20.8652"
         style="fill:#231f20;fill-opacity:1;fill-rule:nonzero;stroke:#000000;stroke-width:0"
         id="path2619" /><path
         d="M 109.51,16.1238 L 111.965,19.3461 L 109.606,19.3461 L 109.606,19.7777 L 112.549,19.7777 L 112.549,19.3461 L 110.094,16.1316 L 112.549,16.1316 L 112.549,15.7 L 109.51,15.7 L 109.51,16.1238"
         style="fill:#231f20;fill-opacity:1;fill-rule:nonzero;stroke:#000000;stroke-width:0"
         id="path2621" /></g></g></svg>
